<svg width="18" height="18" viewBox="0 0 18 18" fill="none" xmlns="http://www.w3.org/2000/svg">
<path d="M10.188 2.73694C10.3411 2.73663 10.4927 2.76511 10.634 2.82073C10.7754 2.87635 10.9037 2.958 11.0115 3.06094L11.6775 3.70894C11.9654 3.98097 12.3072 4.19635 12.6833 4.34268C13.0595 4.48901 13.4624 4.56341 13.869 4.56158H14.13C14.3815 4.56158 14.6306 4.60858 14.8629 4.6999C15.0953 4.79122 15.3063 4.92506 15.4839 5.09376C15.6616 5.26246 15.8024 5.46269 15.8982 5.68301C15.9941 5.90332 16.0431 6.13939 16.0425 6.37768V12.4356C16.0425 12.9162 15.841 13.377 15.4824 13.7168C15.1237 14.0566 14.6372 14.2475 14.13 14.2475H3.90151C3.39428 14.2475 2.90783 14.0566 2.54917 13.7168C2.1905 13.377 1.98901 12.9162 1.98901 12.4356V6.36916C1.9902 5.88937 2.19222 5.42961 2.55076 5.09074C2.90929 4.75188 3.39506 4.56157 3.90151 4.56158H4.16251C4.56914 4.56364 4.97217 4.48936 5.34832 4.34301C5.72447 4.19667 6.06628 3.98116 6.35401 3.70894L7.02001 3.07373C7.12781 2.97078 7.25611 2.88914 7.39747 2.83352C7.53884 2.7779 7.69044 2.74942 7.84351 2.74973H10.188V2.73694ZM10.188 2.14437H7.84351C7.60675 2.14475 7.37239 2.18938 7.15386 2.2757C6.93533 2.36203 6.73693 2.48834 6.57001 2.64742L5.89951 3.28263C5.67202 3.49955 5.40135 3.67154 5.10318 3.78863C4.80501 3.90572 4.48528 3.96558 4.16251 3.96474H3.90151C3.56606 3.96474 3.23391 4.0274 2.92405 4.14914C2.6142 4.27088 2.33272 4.44931 2.09573 4.67422C1.85875 4.89913 1.6709 5.16611 1.54294 5.45987C1.41498 5.75363 1.34942 6.06842 1.35001 6.38621V12.4442C1.35001 13.0852 1.61883 13.7001 2.09733 14.1534C2.57583 14.6067 3.22481 14.8614 3.90151 14.8614H14.1345C14.8112 14.8614 15.4602 14.6067 15.9387 14.1534C16.4172 13.7001 16.686 13.0852 16.686 12.4442V6.36489C16.686 5.72381 16.4172 5.10898 15.9387 4.65567C15.4602 4.20235 14.8112 3.94768 14.1345 3.94768H13.869C13.2164 3.9463 12.5906 3.70122 12.1275 3.26558L11.466 2.63463C11.2986 2.47504 11.0994 2.34843 10.8801 2.26209C10.6607 2.17576 10.4255 2.1314 10.188 2.13158V2.14437Z" fill="white"/>
<path d="M9.018 6.06648C9.651 6.06563 10.27 6.24269 10.7968 6.57524C11.3235 6.90779 11.7343 7.38088 11.9772 7.93467C12.22 8.48846 12.284 9.09805 12.1611 9.6863C12.0381 10.2746 11.7338 10.8151 11.2865 11.2394C10.8392 11.6637 10.2691 11.9528 9.64835 12.0701C9.02759 12.1874 8.38405 12.1277 7.79915 11.8984C7.21426 11.6691 6.7143 11.2806 6.36253 10.782C6.01077 10.2835 5.823 9.69726 5.823 9.09758C5.82419 8.29477 6.16104 7.52509 6.75984 6.95701C7.35863 6.38894 8.17059 6.06873 9.018 6.06648ZM9.018 5.46111C8.25863 5.46026 7.51605 5.67282 6.88422 6.07189C6.25239 6.47096 5.7597 7.0386 5.46849 7.70301C5.17727 8.36741 5.10061 9.09872 5.24821 9.80441C5.39581 10.5101 5.76104 11.1584 6.29768 11.6674C6.83433 12.1764 7.51827 12.5232 8.26299 12.6639C9.00771 12.8045 9.77974 12.7328 10.4814 12.4577C11.1831 12.1825 11.7828 11.7164 12.2048 11.1183C12.6268 10.5202 12.852 9.81699 12.852 9.09758C12.8526 8.62023 12.7539 8.14746 12.5615 7.70628C12.369 7.26511 12.0867 6.8642 11.7306 6.52646C11.3746 6.18873 10.9517 5.9208 10.4863 5.738C10.0208 5.5552 9.52187 5.46111 9.018 5.46111Z" fill="white"/>
</svg>
