<svg width="17" height="17" viewBox="0 0 17 17" fill="none" xmlns="http://www.w3.org/2000/svg">
<path fill-rule="evenodd" clip-rule="evenodd" d="M11.25 0C12.9069 0 14.25 1.34315 14.25 3V11.25C14.25 12.9069 12.9069 14.25 11.25 14.25H3C1.34315 14.25 0 12.9069 0 11.25V3C0 1.34315 1.34315 0 3 0H11.25ZM15.2509 2.76468C15.8641 3.31398 16.25 4.11193 16.25 5V13.25C16.25 14.9069 14.9069 16.25 13.25 16.25H5C4.11145 16.25 3.31313 15.8637 2.76381 15.2499L13.25 15.25C14.3546 15.25 15.25 14.3546 15.25 13.25L15.2509 2.76468ZM3 1H11.25C12.3546 1 13.25 1.89543 13.25 3V11.25C13.25 12.3546 12.3546 13.25 11.25 13.25H3C1.89543 13.25 1 12.3546 1 11.25V3C1 1.89543 1.89543 1 3 1Z" fill="white"/>
</svg>
