<svg width="19" height="19" viewBox="0 0 19 19" fill="none" xmlns="http://www.w3.org/2000/svg">
<path d="M1.07136 1.23844L1.07115 1.23826L1.06674 1.2442C0.819788 1.57703 0.847128 2.04921 1.14896 2.35104L1.14896 2.35104L8.67958 9.88101L1.14896 17.4124C0.817014 17.7444 0.817014 18.2826 1.14896 18.6145C1.4809 18.9464 2.0191 18.9464 2.35104 18.6145L2.28033 18.5438L2.35105 18.6145L9.88101 11.0834L17.4124 18.6145L17.4122 18.6147L17.4178 18.6195L17.5019 18.6921L17.5017 18.6923L17.5077 18.6967C17.8405 18.9437 18.3127 18.9163 18.6145 18.6145L18.6147 18.6147L18.6195 18.6091L18.6921 18.525L18.6923 18.5252L18.6967 18.5193C18.9437 18.1864 18.9163 17.7142 18.6145 17.4124L11.0834 9.88101L18.6145 2.35105L18.5438 2.28033L18.6145 2.35104C18.9464 2.0191 18.9464 1.4809 18.6145 1.14896C18.2826 0.817014 17.7444 0.817014 17.4124 1.14896L9.88101 8.67958L2.35104 1.14896L2.35123 1.14877L2.34568 1.14397L2.26156 1.07136L2.26174 1.07115L2.2558 1.06674C1.92297 0.819788 1.45079 0.847128 1.14896 1.14896L1.14877 1.14877L1.14397 1.15432L1.07136 1.23844Z" fill="black" stroke="black" stroke-width="0.2"/>
</svg>
