<svg width="22" height="24" viewBox="0 0 22 24" fill="none" xmlns="http://www.w3.org/2000/svg">
<path d="M11.7 0.904491L21.7 10.7059C21.8919 10.894 22 11.1514 22 11.4201V23.5C22 23.7455 21.8231 23.9496 21.5899 23.9919L21.5 24L13.5 23.9997C13.2239 23.9996 13 23.7758 13 23.4997V18L12.9955 17.6501C12.9558 16.2155 12.6344 15.0896 11.1763 15.0051L11 15C9.40232 15 9.09634 16.2489 9.00509 17.8237L9 18V23.4997C8.99998 23.7758 8.77613 23.9996 8.5 23.9997L0.5 24C0.25454 24 0.0503849 23.8231 0.00804008 23.5899L0 23.5V11.4201C0 11.1514 0.108129 10.894 0.300019 10.7059L10.3 0.904491C10.6889 0.523373 11.3111 0.523373 11.7 0.904491Z" fill="#262626"/>
</svg>
