<svg width="24" height="24" viewBox="0 0 24 24" fill="none" xmlns="http://www.w3.org/2000/svg">
<path d="M16.1085 0H7.39127C3.31585 0 0 3.38183 0 7.53862V15.9616C0 20.1182 3.31585 23.5 7.39127 23.5H16.1085C20.1842 23.4997 23.5 20.1182 23.5 15.9614V7.53862C23.5 3.38183 20.1842 0 16.1085 0ZM21.3067 6.47339H17.7174L15.3481 2.13046H16.1085C18.6747 2.13046 20.8202 3.99993 21.3067 6.47339ZM10.4152 6.47339L8.04614 2.13046H12.9579L15.327 6.47313H10.4152V6.47339ZM5.79301 2.38265L8.02447 6.47313H2.19333C2.57429 4.53654 3.97228 2.97119 5.79301 2.38265ZM16.1085 21.3693H7.39127C4.46761 21.3693 2.08889 18.9435 2.08889 15.9614V8.60385H21.4111V15.9616C21.4111 18.9435 19.0324 21.3693 16.1085 21.3693Z" fill="url(#paint0_linear_113_3)"/>
<path d="M14.7181 13.6061L10.1721 11.1282C9.55432 10.7913 8.80728 11.248 8.80728 11.9625V16.9187C8.80728 17.6332 9.55432 18.09 10.1721 17.7531L14.7181 15.2751C15.3719 14.9185 15.3719 13.9627 14.7181 13.6061Z" fill="url(#paint1_linear_113_3)"/>
<defs>
<linearGradient id="paint0_linear_113_3" x1="5.46999" y1="18.4765" x2="19.142" y2="4.3982" gradientUnits="userSpaceOnUse">
<stop stop-color="white"/>
</linearGradient>
<linearGradient id="paint1_linear_113_3" x1="6.31631" y1="19.2984" x2="19.9883" y2="5.22007" gradientUnits="userSpaceOnUse">
<stop stop-color="white"/>
<stop offset="0.5" stop-color="white"/>
<stop offset="1" stop-color="white"/>
</linearGradient>
</defs>
</svg>
